<svg xmlns="http://www.w3.org/2000/svg" viewBox="0 0 64 64" role="img" aria-label="Veterinario y mascotas">
  <g fill="none" stroke="#111111" stroke-width="2" stroke-linecap="square" stroke-linejoin="miter">
    <path d="M24 44c0-8 4-12 8-12s8 4 8 12c0 6-4 10-8 10s-8-4-8-10Z"/>
    <path d="M20 34c0-3 2-5 5-5"/>
    <path d="M44 34c0-3-2-5-5-5"/>
    <path d="M18 26c0-2 2-4 4-4s4 2 4 4-2 4-4 4-4-2-4-4Z"/>
    <path d="M38 26c0-2 2-4 4-4s4 2 4 4-2 4-4 4-4-2-4-4Z"/>
  </g>
  <circle cx="32" cy="46" r="2" fill="#FC680C"/>
</svg>
